<?xml version="1.0" encoding="utf-8"?>
<!-- Generator: Adobe Illustrator 23.0.1, SVG Export Plug-In . SVG Version: 6.00 Build 0)  -->
<svg version="1.1" id="Layer_1" xmlns="http://www.w3.org/2000/svg" xmlns:xlink="http://www.w3.org/1999/xlink" x="0px" y="0px"
	 viewBox="0 0 220 220" style="enable-background:new 0 0 220 220;" xml:space="preserve">
	<path d="M217.85,109.9c0.35,59.35-47.88,108.01-107.37,108.32C51.05,218.54,2.55,170.48,2.15,110.88C1.75,50.95,49.8,2,109.26,1.77
		C169.28,1.54,217.49,49.55,217.85,109.9z M130.43,137.19c0-2.49,0-4.45,0-6.42c0-24.99,0.08-49.98-0.04-74.98
		c-0.06-12.13,2.14-10.37-11.01-10.67c-3.73-0.09-5.28,0.86-5.26,5c0.16,32.99,0.13,65.98,0.03,98.97
		c-0.01,3.44,1.01,4.75,4.53,4.67c8.33-0.18,16.66,0.02,24.99-0.08c22.94-0.28,41.93-18.09,43.51-40.72
		c1.57-22.56-14.88-42.93-37.48-46.4c-10.38-1.59-10.41-1.35-10.75,9.06c-0.16,4.96,0.88,6.9,6.42,7.03
		c13.86,0.31,24.92,11.93,25.56,25.89c0.66,14.24-9.38,26.85-23.27,28.55C142.27,137.74,136.73,137.19,130.43,137.19z M89.29,82.7
		c0,2.37,0,4.33,0,6.28c0,24.82-0.1,49.65,0.04,74.47c0.08,13.05-2.41,11.01,11.88,11.29c3.18,0.06,4.43-1.02,4.43-4.31
		c-0.08-33.32-0.08-66.64,0-99.96c0.01-3.27-1.18-4.37-4.39-4.31c-8.49,0.15-16.99-0.03-25.49,0.07
		c-23.19,0.25-41.91,18.55-43.13,42.06c-1.14,22.12,16.03,42.33,38.36,45.15c9.75,1.23,9.75,1.23,9.74-8.45c0-7.02,0-7.02-7.08-7.65
		c-13.82-1.23-24.38-12.59-24.88-26.77c-0.48-13.45,9.77-26.07,23.14-27.76C77.31,82.13,82.86,82.7,89.29,82.7z"/>
</svg>
